<svg width="123" height="38" viewBox="0 0 123 38" fill="none" xmlns="http://www.w3.org/2000/svg">
<path d="M14.6909 24.084L13.4998 26.46C12.8501 27.684 11.9116 28.224 10.6482 28.26H9.45707C7.68838 28.26 6.24455 26.856 6.24455 25.128C6.24455 24.048 6.74989 23.148 7.5079 22.608L4.62025 17.028C1.87697 18.648 0 21.636 0 25.128C0 30.312 4.151 34.524 9.42097 34.524H10.6843C13.7525 34.524 16.5679 32.796 17.9396 30.06L18.8059 28.26L20.9355 24.12H14.6188L14.6909 24.084ZM25.1948 3.13201H24.1119C20.9355 3.13201 17.9757 4.96801 16.5679 7.81201L12.5974 15.732L7.03866 4.68001C6.56941 3.74401 5.59483 3.13201 4.54806 3.13201C2.92375 3.13201 1.76869 4.46401 1.76869 5.94001C1.76869 6.33601 1.84088 6.76801 2.05745 7.16401L6.38893 15.804L6.56941 16.164L9.60145 21.924H15.6294L18.878 15.696L21.1521 11.196C21.6935 10.044 22.7042 9.46801 24.0036 9.36001H25.1948C26.8913 9.36001 28.3351 10.764 28.3351 12.564C28.3351 14.364 26.9274 15.696 25.1948 15.696H21.3686L18.0839 21.924H24.8699C26.1694 21.852 27.2161 21.672 28.0824 21.42C31.9086 20.268 34.688 16.74 34.688 12.564C34.688 7.30801 30.3926 3.09601 25.2309 3.09601L25.1948 3.13201ZM32.6305 30.456L29.057 23.472C27.3966 24.012 25.1948 24.12 23.6427 24.12H23.1012L27.541 32.94C28.0463 33.876 28.9848 34.488 30.0316 34.488H30.1399C32.1974 34.488 33.569 32.292 32.6305 30.456Z" fill="#FBC50B"/>
<path d="M50.6421 0.504013C50.9309 0.432013 51.2197 0.396013 51.5084 0.360013C51.7972 0.360013 52.086 0.324016 52.3747 0.324016C52.7718 0.324016 53.2049 0.324014 53.6742 0.396014C54.1073 0.432014 54.5405 0.540014 54.9014 0.684014L55.0458 0.900015C54.7209 2.08802 54.36 3.38402 53.9268 4.82402C53.5298 6.26402 53.1327 7.70401 52.6996 9.14402C52.2664 10.584 51.8694 11.988 51.4723 13.284C51.0753 14.58 50.7504 15.696 50.4617 16.632C49.9202 16.704 49.3427 16.74 48.7291 16.776C48.1154 16.776 47.4657 16.812 46.8521 16.812C45.9497 16.812 45.2278 16.668 44.6863 16.38C44.181 16.092 43.784 15.444 43.4952 14.472L39.5247 0.900015C39.9578 0.720015 40.4271 0.540015 40.8963 0.432015C41.3655 0.324015 41.7987 0.252014 42.1957 0.252014C42.9537 0.252014 43.5674 0.432015 44.0005 0.756015C44.4337 1.08002 44.7585 1.65601 44.9751 2.48401L46.5272 8.67601C46.6355 9.10801 46.7438 9.57602 46.8521 10.08C46.9604 10.584 47.0326 11.052 47.1048 11.52C47.1769 11.988 47.2491 12.384 47.3213 12.708C47.3213 12.888 47.4657 12.96 47.6462 12.96L50.606 0.540014L50.6421 0.504013Z" fill="#FBC50B"/>
<path d="M70.964 8.532C70.964 10.26 70.6753 11.736 70.1338 13.032C69.5563 14.328 68.7261 15.3 67.6432 16.02C66.5604 16.74 65.1887 17.064 63.5644 17.064C61.9401 17.064 60.5685 16.704 59.4856 15.984C58.4027 15.264 57.5725 14.292 56.995 12.996C56.4175 11.7 56.1648 10.224 56.1648 8.532C56.1648 6.84 56.4536 5.292 56.995 4.032C57.5364 2.772 58.4027 1.764 59.4856 1.044C60.6046 0.324 61.9401 0 63.5644 0C65.1887 0 66.5603 0.360001 67.6793 1.08C68.7983 1.8 69.6285 2.772 70.1699 4.068C70.7114 5.328 71.0001 6.84 71.0001 8.568L70.964 8.532ZM61.1099 8.532C61.1099 9.432 61.1821 10.26 61.2904 11.016C61.3987 11.772 61.6513 12.348 62.0123 12.78C62.3732 13.212 62.8786 13.428 63.6005 13.428C64.3224 13.428 64.8278 13.212 65.1887 12.78C65.5136 12.348 65.7662 11.736 65.8745 11.016C65.9828 10.26 66.055 9.432 66.055 8.532C66.055 7.632 65.9828 6.804 65.8745 6.048C65.7662 5.292 65.5136 4.716 65.1887 4.248C64.8278 3.816 64.3224 3.6 63.6005 3.6C62.8786 3.6 62.3732 3.816 62.0123 4.248C61.6513 4.68 61.4348 5.292 61.2904 6.048C61.1821 6.804 61.1099 7.632 61.1099 8.532Z" fill="#FBC50B"/>
<path d="M82.1898 7.488C82.1898 6.66 82.1898 5.976 82.0815 5.4C82.0093 4.824 81.7928 4.356 81.504 4.068C81.2152 3.744 80.7821 3.6 80.1685 3.6C79.3744 3.6 78.8329 3.996 78.472 4.788C78.1471 5.58 77.9666 6.84 77.9666 8.604C77.9666 10.368 78.2193 11.556 78.7246 12.276C79.23 12.96 79.9519 13.32 80.8904 13.32C81.5401 13.32 82.1898 13.176 82.8034 12.888C83.4171 12.6 83.9946 12.276 84.4999 11.916C84.897 12.132 85.258 12.528 85.6189 13.068C85.9799 13.608 86.2325 14.148 86.3408 14.616C85.6189 15.372 84.7165 15.948 83.5976 16.416C82.4786 16.884 81.3235 17.1 80.1324 17.1C78.9412 17.1 77.9305 16.884 77.0642 16.488C76.1618 16.092 75.4399 15.516 74.8624 14.76C74.2849 14.004 73.8156 13.104 73.5269 12.06C73.2381 11.016 73.0576 9.864 73.0576 8.604C73.0576 6.516 73.4186 4.86 74.1405 3.6C74.8624 2.34 75.7648 1.44 76.8477 0.863999C77.9666 0.287999 79.0856 0 80.2768 0C81.1791 0 82.0454 0.143999 82.8034 0.395999C83.5615 0.647999 84.2473 1.044 84.7887 1.512C85.3302 1.98 85.7633 2.556 86.0882 3.204C86.3769 3.852 86.5574 4.572 86.5574 5.328C86.5574 6.12 86.3408 6.732 85.9077 7.128C85.4745 7.524 84.897 7.704 84.1751 7.704C83.778 7.704 83.4171 7.704 83.1283 7.668C82.8395 7.668 82.5147 7.596 82.2259 7.524L82.1898 7.488Z" fill="#FBC50B"/>
<path d="M88.4343 12.168C88.4343 10.872 88.7231 9.82802 89.3367 9.00002C89.9503 8.17202 90.7084 7.56002 91.6829 7.16402C92.6575 6.76802 93.7043 6.58802 94.8233 6.58802C95.3286 6.58802 95.9783 6.58802 96.7002 6.62402C97.4222 6.66002 98.108 6.73202 98.7216 6.84002V9.90002C98.2163 9.79202 97.6748 9.72002 96.989 9.72002C96.3393 9.72002 95.7618 9.72002 95.2925 9.72002C94.5345 9.72002 93.9931 9.93602 93.6321 10.332C93.2712 10.728 93.1268 11.232 93.1268 11.88C93.1268 12.348 93.2712 12.744 93.5599 13.032C93.8487 13.356 94.2457 13.5 94.715 13.5C95.4008 13.5 96.0866 13.248 96.7724 12.78C97.4583 12.312 98.0719 11.628 98.5411 10.8L99.2269 13.932C98.7938 14.436 98.3245 14.904 97.7831 15.408C97.2417 15.876 96.592 16.272 95.87 16.596C95.1481 16.92 94.3179 17.064 93.3433 17.064C92.2244 17.064 91.322 16.812 90.6001 16.344C89.8782 15.84 89.3367 15.228 88.9758 14.472C88.6148 13.716 88.4343 12.96 88.4343 12.168ZM102.981 14.364C102.873 14.796 102.692 15.264 102.403 15.732C102.115 16.2 101.79 16.596 101.501 16.812C100.599 16.812 99.8406 16.56 99.2269 16.164C98.6494 15.768 98.1802 15.264 97.8914 14.652C97.6026 14.04 97.3861 13.5 97.2778 12.924V5.97602C97.2778 5.25602 97.0973 4.68002 96.7363 4.35602C96.3754 4.03202 95.8339 3.81602 95.0759 3.81602C94.3179 3.81602 93.596 3.92402 92.7658 4.14002C91.9356 4.35602 91.1054 4.60802 90.2752 4.86002C89.9143 4.46402 89.6616 3.96002 89.445 3.34802C89.2284 2.73602 89.1201 2.12402 89.048 1.51202C89.7699 1.22402 90.564 0.972023 91.4303 0.756023C92.2966 0.540023 93.1629 0.360022 94.0292 0.252022C94.8955 0.144022 95.6896 0.0720215 96.3754 0.0720215C97.35 0.0720215 98.2523 0.252024 99.1186 0.612024C99.9849 0.972024 100.707 1.54802 101.248 2.34002C101.79 3.13202 102.079 4.21202 102.079 5.58002V12.168C102.079 12.672 102.151 13.104 102.295 13.464C102.439 13.824 102.656 14.148 102.981 14.364Z" fill="#FBC50B"/>
<path d="M40.3549 36.144C40.3549 35.604 40.5354 35.028 40.7881 34.38C41.0407 33.732 41.3656 33.228 41.7265 32.868C42.4124 33.228 43.1704 33.552 43.9284 33.804C44.6864 34.056 45.4444 34.2 46.2024 34.2C46.8521 34.2 47.3575 34.092 47.7184 33.84C48.0794 33.588 48.2238 33.3 48.2238 32.94C48.2238 32.616 48.1155 32.328 47.8628 32.076C47.6101 31.824 47.2131 31.608 46.6716 31.392L44.8669 30.744C44.1089 30.456 43.423 30.096 42.8094 29.7C42.1958 29.268 41.6904 28.764 41.3295 28.152C40.9685 27.54 40.7881 26.784 40.7881 25.92C40.7881 24.84 41.0407 23.904 41.5461 23.112C42.0514 22.32 42.7733 21.708 43.7118 21.276C44.6503 20.844 45.7332 20.628 46.9965 20.628C48.0072 20.628 49.054 20.772 50.1729 21.024C51.2919 21.312 52.1943 21.6 52.8801 21.96C52.8801 22.536 52.8079 23.148 52.5191 23.832C52.2665 24.516 51.9416 25.02 51.5446 25.308C50.8948 25.02 50.1729 24.732 49.3788 24.516C48.5847 24.264 47.8267 24.156 47.0326 24.156C46.5634 24.156 46.2024 24.264 45.9497 24.48C45.6971 24.696 45.5527 24.984 45.5527 25.308C45.5527 25.596 45.661 25.848 45.8775 26.064C46.0941 26.28 46.4551 26.46 46.9243 26.64L48.9096 27.36C50.1368 27.792 51.1836 28.404 51.9777 29.232C52.7718 30.06 53.205 31.14 53.205 32.508C53.205 34.092 52.5913 35.388 51.3641 36.324C50.1368 37.26 48.4403 37.728 46.2746 37.728C45.1195 37.728 44.0367 37.584 42.9899 37.26C41.9431 36.936 41.0407 36.576 40.2827 36.144H40.3549Z" fill="#FBC50B"/>
<path d="M58.0419 20.916C58.9804 20.916 59.6662 21.24 60.1354 21.852C60.6047 22.464 60.8573 23.328 60.8573 24.408V37.26C60.1354 37.368 59.3413 37.44 58.4389 37.44C57.5365 37.44 56.7424 37.368 56.0205 37.26V21.168L56.2371 20.952H58.0419V20.916ZM64.7196 27.468C64.7196 26.568 64.5752 25.956 64.2503 25.632C63.9255 25.308 63.5645 25.164 63.2035 25.164C62.7343 25.164 62.229 25.344 61.7236 25.704C61.1822 26.064 60.7129 26.496 60.2798 27.036C59.8467 27.576 59.5218 28.08 59.3052 28.62V24.408C59.8106 23.796 60.3881 23.256 61.0017 22.716C61.6153 22.176 62.2651 21.744 62.987 21.384C63.6728 21.024 64.4308 20.88 65.1888 20.88C66.1273 20.88 66.9214 21.096 67.6072 21.528C68.2569 21.96 68.7623 22.572 69.1232 23.328C69.4481 24.084 69.6286 24.984 69.6286 25.956V37.26C68.9428 37.368 68.1487 37.44 67.2102 37.44C66.3439 37.44 65.5498 37.368 64.7918 37.26V27.468H64.7196ZM73.4186 27.432C73.4186 26.532 73.2382 25.956 72.9133 25.632C72.5884 25.308 72.2275 25.164 71.8304 25.164C71.3973 25.164 70.928 25.344 70.4227 25.704C69.9173 26.064 69.412 26.496 68.9789 27.072C68.5096 27.612 68.1487 28.188 67.896 28.764V24.228C68.3652 23.652 68.9428 23.076 69.6286 22.572C70.2783 22.068 71.0002 21.636 71.7582 21.312C72.5162 20.988 73.2381 20.844 73.9962 20.844C74.9346 20.844 75.7288 21.06 76.3785 21.528C77.0282 21.996 77.4974 22.608 77.8223 23.364C78.1472 24.12 78.2915 25.02 78.2915 25.992V33.3C78.2915 33.912 78.3637 34.524 78.472 35.064C78.5803 35.604 78.7969 36.072 79.0496 36.504C78.6886 36.792 78.2555 37.044 77.714 37.224C77.1726 37.44 76.6311 37.512 76.0175 37.512C75.0429 37.512 74.3932 37.26 73.9962 36.756C73.5991 36.252 73.4186 35.496 73.4186 34.56V27.468V27.432Z" fill="#FBC50B"/>
<path d="M81.2152 32.832C81.2152 31.536 81.504 30.492 82.1176 29.664C82.7312 28.836 83.4892 28.224 84.4638 27.828C85.4384 27.432 86.4852 27.252 87.6041 27.252C88.1095 27.252 88.7592 27.252 89.4811 27.288C90.2391 27.288 90.8889 27.396 91.5025 27.504V30.564C90.9971 30.456 90.4557 30.384 89.7699 30.384C89.0841 30.384 88.5426 30.384 88.0734 30.384C87.3154 30.384 86.7739 30.6 86.413 30.996C86.052 31.392 85.9077 31.932 85.9077 32.544C85.9077 33.012 86.052 33.408 86.3408 33.696C86.6296 34.02 87.0266 34.164 87.4959 34.164C88.1817 34.164 88.8675 33.912 89.5533 33.444C90.2391 32.976 90.8528 32.292 91.322 31.464L92.0078 34.596C91.5747 35.1 91.1054 35.568 90.564 36.072C90.0226 36.54 89.3728 36.936 88.6509 37.296C87.929 37.62 87.0988 37.764 86.1242 37.764C85.0053 37.764 84.1029 37.512 83.381 37.044C82.659 36.54 82.1176 35.928 81.7567 35.172C81.3957 34.416 81.2152 33.66 81.2152 32.868V32.832ZM95.7618 35.028C95.6535 35.46 95.473 35.928 95.1842 36.396C94.8955 36.9 94.5706 37.26 94.2819 37.476C93.3795 37.476 92.6215 37.224 92.0078 36.828C91.4303 36.432 90.961 35.928 90.6723 35.316C90.3474 34.74 90.1669 34.164 90.0587 33.588V26.64C90.0587 25.92 89.8782 25.344 89.5172 25.02C89.1563 24.696 88.6148 24.48 87.8568 24.48C87.0988 24.48 86.3769 24.588 85.5467 24.804C84.7165 25.02 83.8863 25.272 83.0561 25.524C82.6951 25.128 82.4425 24.624 82.2259 24.012C82.0093 23.4 81.901 22.788 81.8288 22.176C82.5508 21.888 83.3449 21.636 84.2112 21.42C85.0775 21.204 85.9437 21.024 86.81 20.916C87.6763 20.808 88.4704 20.736 89.1563 20.736C90.1308 20.736 91.0332 20.916 91.8995 21.276C92.7658 21.636 93.4877 22.212 94.0292 23.004C94.5706 23.796 94.8594 24.876 94.8594 26.244V32.832C94.8594 33.336 94.9316 33.768 95.076 34.128C95.2203 34.488 95.4369 34.812 95.7618 35.028Z" fill="#FBC50B"/>
<path d="M97.8553 23.364C97.9636 22.932 98.1441 22.464 98.469 21.96C98.7577 21.456 99.0826 21.096 99.3714 20.844C100.815 20.988 101.898 21.528 102.62 22.5C103.342 23.472 103.775 24.732 103.919 26.316V37.224C103.198 37.332 102.403 37.404 101.501 37.404C100.599 37.404 99.8045 37.332 99.0826 37.224V26.712C99.0826 25.776 98.9382 25.02 98.6855 24.48C98.4329 23.94 98.1441 23.544 97.8553 23.364ZM109.514 21.168C109.514 21.744 109.406 22.464 109.225 23.328C109.045 24.192 108.72 24.984 108.323 25.632C108.07 25.524 107.782 25.488 107.529 25.416C107.276 25.38 106.988 25.344 106.699 25.308C106.23 25.308 105.832 25.38 105.472 25.56C105.111 25.74 104.786 25.956 104.497 26.28C104.208 26.604 103.956 26.964 103.703 27.432C103.45 27.864 103.234 28.368 103.017 28.944L102.44 28.224C102.476 27.36 102.62 26.496 102.8 25.596C102.981 24.696 103.234 23.94 103.595 23.22C103.956 22.5 104.461 21.924 105.074 21.492C105.688 21.06 106.482 20.844 107.421 20.844C107.89 20.844 108.251 20.844 108.576 20.916C108.865 20.952 109.189 21.024 109.514 21.132V21.168Z" fill="#FBC50B"/>
<path d="M122.112 21.096C122.256 21.672 122.328 22.248 122.328 22.788C122.328 23.4 122.256 23.976 122.112 24.552L116.156 24.444L110.994 24.552C110.85 24.012 110.778 23.436 110.778 22.788C110.778 22.212 110.85 21.672 110.994 21.096L116.264 21.204L122.076 21.096H122.112ZM113.521 19.188C113.521 18.108 113.737 17.352 114.134 16.92C114.532 16.488 115.217 16.272 116.156 16.272H118.033L118.249 16.488V32.256C118.249 32.724 118.358 33.12 118.574 33.372C118.791 33.624 119.152 33.768 119.657 33.768H121.534C121.787 34.524 121.895 35.28 121.895 36.072C121.895 36.252 121.895 36.432 121.895 36.612C121.895 36.792 121.859 36.972 121.787 37.152C121.209 37.224 120.523 37.296 119.765 37.368C119.007 37.44 118.322 37.476 117.672 37.476C116.264 37.476 115.217 37.116 114.532 36.432C113.846 35.712 113.521 34.632 113.521 33.156V19.26V19.188Z" fill="#FBC50B"/>
</svg>
